<?xml version="1.0" encoding="UTF-8"?>
<svg xmlns="http://www.w3.org/2000/svg" viewBox="0 0 500 500" width="500" height="500">
<path d="M499.92 93.95C499.92 114.7 499.92 135.44 499.92 156.18C489.68 156.17 479.43 156.17 469.18 156.16C469.12 166.44 469.06 176.71 468.99 186.99C448.05 187.06 427.11 187.14 406.16 187.21C406.12 197.79 406.07 208.37 406.03 218.95C364.37 218.98 322.71 219.01 281.05 219.03C280.9 208.45 280.75 197.86 280.59 187.28C270.55 187.25 260.5 187.23 250.46 187.2C248.59 183.51 249.79 173.67 249.79 169.18C249.79 159.59 249.79 150 249.79 140.41C249.79 135.34 249.38 130.05 250 125.02C260.27 124.97 270.55 124.93 280.82 124.89C280.9 103.91 280.97 82.94 281.05 61.97C291.32 61.94 301.6 61.9 311.87 61.87C311.95 51.56 312.02 41.25 312.1 30.94C322.79 31.05 333.48 31.16 344.17 31.28C344.21 41.48 344.25 51.67 344.29 61.87C385.77 61.85 427.25 61.84 468.72 61.82C468.87 72.41 469.03 83.01 469.18 93.61C479.43 93.72 489.68 93.84 499.92 93.95ZM343.79 62.23C333.27 62.23 322.76 62.23 312.24 62.23C312.24 83.23 312.24 104.22 312.24 125.22C301.9 125.22 291.55 125.22 281.21 125.22C281.21 145.74 281.21 166.27 281.21 186.79C322.73 186.79 364.25 186.79 405.77 186.79C405.77 176.45 405.77 166.12 405.77 155.78C426.77 155.78 447.76 155.78 468.76 155.78C468.76 135.27 468.76 114.75 468.76 94.24C437.59 94.24 406.41 94.24 375.24 94.24C375.24 104.56 375.24 114.88 375.24 125.2C364.76 125.2 354.27 125.2 343.79 125.2C343.79 104.21 343.79 83.22 343.79 62.23ZM0.08 312C0.08 281.01 0.08 250.03 0.08 219.05C10.32 218.94 20.57 218.83 30.82 218.72C30.97 197.76 31.13 176.8 31.28 155.83C41.48 155.79 51.67 155.75 61.87 155.71C61.13 148.93 61.75 141.76 61.75 134.93C61.75 131.7 61.15 127.76 62.33 124.8C83.18 124.84 104.03 124.87 124.89 124.91C125.11 135.25 125.34 145.59 125.57 155.94C135.69 155.94 145.81 155.94 155.94 155.94C156.16 166.29 156.39 176.64 156.62 186.99C177.4 186.98 198.17 186.97 218.95 186.96C219.1 197.55 219.25 208.13 219.41 218.72C229.6 218.83 239.8 218.93 250 219.04C250.08 229.21 250.16 239.38 250.24 249.54C260.48 249.7 270.72 249.85 280.96 250C281.03 270.55 281.11 291.1 281.18 311.64C278.19 312.83 274.27 312.24 271 312.24C264.21 312.24 256.95 312.94 250.23 312.1C250.15 322.72 250.08 333.35 250 343.97C177.09 344.04 104.19 344.1 31.28 344.17C31.13 333.55 30.97 322.94 30.82 312.33C20.57 312.22 10.32 312.11 0.08 312ZM62.22 156.21C62.22 177.21 62.22 198.21 62.22 219.21C51.89 219.21 41.56 219.21 31.24 219.21C31.24 250.07 31.24 280.93 31.24 311.78C104.09 311.78 176.94 311.78 249.79 311.78C249.79 291.26 249.79 270.73 249.79 250.21C239.46 250.21 229.13 250.21 218.8 250.21C218.8 239.87 218.8 229.54 218.8 219.21C197.93 219.21 177.07 219.21 156.21 219.21C156.21 229.54 156.21 239.87 156.21 250.2C145.73 250.2 135.24 250.2 124.76 250.2C124.76 218.87 124.76 187.54 124.76 156.21C103.91 156.21 83.07 156.21 62.22 156.21ZM374.98 249.8C376.31 256.39 375.25 264.24 375.25 271C375.25 274.29 375.82 278.18 374.66 281.22C364.51 281.22 354.36 281.22 344.22 281.22C344.22 291.36 344.22 301.5 344.22 311.64C341.09 312.87 336.96 312.24 333.56 312.24C326.38 312.24 318.95 312.77 311.8 312.08C311.8 301.65 311.8 291.22 311.8 280.79C322.46 280.79 333.13 280.79 343.79 280.79C343.79 270.46 343.79 260.13 343.79 249.8C354.19 249.8 364.59 249.8 374.98 249.8ZM469.24 249.8C469.24 260.27 469.24 270.74 469.24 281.22C458.58 281.22 447.92 281.22 437.25 281.22C437.25 291.56 437.25 301.9 437.25 312.24C426.92 312.24 416.58 312.24 406.25 312.24C406.25 322.9 406.25 333.56 406.25 344.22C395.77 344.22 385.28 344.22 374.8 344.22C374.8 333.41 374.8 322.59 374.8 311.78C385.12 311.78 395.45 311.78 405.77 311.78C405.77 301.45 405.77 291.13 405.77 280.8C416.1 280.8 426.43 280.8 436.75 280.8C436.75 270.46 436.75 260.13 436.75 249.8C447.58 249.8 458.41 249.8 469.24 249.8ZM125.2 374.8C125.2 385.28 125.2 395.77 125.2 406.26C114.88 406.26 104.55 406.26 94.22 406.26C94.22 416.59 94.22 426.92 94.22 437.26C83.55 437.26 72.88 437.26 62.21 437.26C62.21 447.92 62.21 458.59 62.21 469.25C51.72 469.25 41.24 469.25 30.75 469.25C30.75 458.42 30.75 447.59 30.75 436.75C41.08 436.75 51.42 436.75 61.75 436.75C61.75 426.43 61.75 416.1 61.75 405.77C72.41 405.77 83.08 405.77 93.75 405.77C93.75 395.45 93.75 385.12 93.75 374.8C104.23 374.8 114.72 374.8 125.2 374.8ZM344.22 374.8C344.22 385.28 344.22 395.77 344.22 406.25C333.56 406.25 322.9 406.25 312.24 406.25C312.24 416.58 312.24 426.92 312.24 437.25C301.9 437.25 291.56 437.25 281.22 437.25C281.22 447.92 281.22 458.58 281.22 469.24C270.74 469.24 260.27 469.24 249.8 469.24C249.8 458.41 249.8 447.58 249.8 436.75C260.13 436.75 270.46 436.75 280.8 436.75C280.8 426.43 280.8 416.1 280.8 405.77C291.13 405.77 301.45 405.77 311.78 405.77C311.78 395.45 311.78 385.12 311.78 374.8C322.59 374.8 333.41 374.8 344.22 374.8ZM156.18 499.92C145.78 499.92 135.39 499.92 124.99 499.92C124.95 489.68 124.91 479.43 124.86 469.18C135.22 468.95 145.58 468.72 155.94 468.49C155.91 458.07 155.89 447.64 155.86 437.21C166.16 437.06 176.46 436.91 186.76 436.76C186.8 426.56 186.85 416.36 186.89 406.16C197.58 406.1 208.26 406.04 218.95 405.98C218.95 416.33 218.95 426.68 218.95 437.03C208.37 437.09 197.79 437.15 187.21 437.21C187.14 447.81 187.06 458.4 186.99 468.99C176.71 469.06 166.44 469.12 156.16 469.18C156.17 479.43 156.17 489.68 156.18 499.92ZM375.01 499.92C364.61 499.92 354.22 499.92 343.82 499.92C343.9 489.6 343.98 479.28 344.06 468.96C354.26 468.82 364.46 468.69 374.66 468.55C374.81 458.01 374.96 447.47 375.11 436.93C385.39 436.87 395.66 436.82 405.94 436.76C406.01 426.47 406.09 416.19 406.16 405.9C416.48 405.99 426.79 406.08 437.1 406.16C437.12 416.36 437.13 426.56 437.15 436.76C426.9 436.91 416.65 437.06 406.39 437.21C406.32 447.72 406.26 458.22 406.19 468.72C395.91 468.87 385.62 469.03 375.34 469.18C375.23 479.43 375.12 489.68 375.01 499.92Z" fill="#84a2fc" fill-rule="evenodd" stroke="#84a2fc" stroke-width="0.25" stroke-linejoin="round"/>
</svg>